<?xml version="1.0" encoding="iso-8859-1"?>
<!-- Generator: Adobe Illustrator 19.1.0, SVG Export Plug-In . SVG Version: 6.00 Build 0)  -->
<svg version="1.1" id="Capa_1" xmlns="http://www.w3.org/2000/svg" xmlns:xlink="http://www.w3.org/1999/xlink" x="0px" y="0px"
	 viewBox="0 0 289.739 289.739" style="enable-background:new 0 0 289.739 289.739;" xml:space="preserve">
<g>
	<path d="M261.368,215.855c1.811-1.811,3.622-3.622,5.433-6.64c6.036-12.072-1.207-25.956-10.865-32.596
		c-9.658-6.036-20.523-6.64-30.785-7.847c-19.316-1.207-36.217-3.622-50.101-12.072c-15.694-9.658-24.145-25.352-28.974-37.425
		c-6.036-15.694-8.451-32.596-11.469-49.497l-7.847-50.704c-1.207-6.036-6.036-11.469-12.072-12.072
		c-4.829-0.604-9.054,1.207-12.072,1.811c-25.352,8.451-49.497,19.316-73.038,31.388c-6.036,3.018-9.054,9.658-7.244,16.298
		c4.225,19.316-0.604,40.443-6.64,58.551c-1.207,3.622-2.414,7.244-3.622,10.262C6.64,141.61,0.604,159.115,0,177.224l0,0l0,0
		v47.686c0,3.622,2.414,6.036,6.036,6.036h23.541v39.839H6.036C2.414,270.785,0,273.2,0,276.822s2.414,6.036,6.036,6.036h248.692
		c19.316,0,35.01-15.694,35.01-34.407C289.739,232.757,277.666,218.874,261.368,215.855z M23.541,130.141
		c1.207-3.622,2.414-7.244,3.622-10.865c6.036-19.316,12.072-42.254,6.64-64.588c0-1.207,0.604-2.414,1.207-3.018
		c22.938-12.072,47.082-22.334,71.227-30.785c3.018-1.207,5.433-1.811,7.244-1.207c0.604,0,1.207,1.207,1.207,1.811l0,0l6.64,44.064
		l-12.072,1.207c-3.018,0.604-6.036,3.018-5.433,6.64c0.604,3.018,3.018,5.433,6.036,5.433h0.604l12.676-1.207
		c1.207,6.64,1.811,13.28,3.622,19.919l-12.072,1.207c-3.018,0.604-6.036,3.018-5.433,6.64c0.604,3.018,3.018,5.433,6.036,5.433
		h0.604l13.28-1.207c1.207,4.829,3.018,9.658,4.829,14.487c0.604,1.207,1.207,2.414,1.207,3.622l-11.469,1.207
		c-3.018,0.604-6.036,3.018-5.433,6.64c0.604,3.018,3.018,5.433,6.036,5.433h0.604l16.298-1.811
		c6.036,10.262,14.487,21.127,26.559,28.37c16.298,9.658,34.406,12.072,54.93,13.28c9.054,0.604,18.109,1.207,24.749,6.036
		c5.433,3.622,9.658,11.469,6.64,16.901c-2.414,4.225-8.451,6.64-13.883,8.451c-46.479,14.487-99.598,9.054-141.851-15.091
		c-3.622-1.811-7.244-4.225-10.865-6.64c-7.244-4.225-15.091-9.054-22.938-12.676l0,0c-3.018-1.207-5.433-2.414-8.451-3.018
		c-1.207,0-1.811-0.604-3.018-0.604c-2.414-0.604-4.225-1.207-6.64-1.811c-1.207,0-1.811-0.604-3.018-0.604
		c-2.414-0.604-4.829-0.604-7.244-1.207c-0.604,0-1.207,0-1.811,0c-3.018,0-6.036-0.604-9.054-0.604h-0.604
		c-1.811,0-3.018,0-4.829,0c-0.604,0-1.207,0-1.811,0c-2.414,0-4.829,0.604-7.244,0.604
		C14.487,157.304,19.316,143.421,23.541,130.141z M12.073,183.26c0.604,0,0.604,0,1.207,0s1.811,0,2.414-0.604
		c1.207,0,2.414,0,3.622-0.604c0.604,0,1.811,0,2.414,0c1.207,0,2.414,0,3.622,0c0.604,0,1.811,0,2.414,0c1.207,0,2.414,0,4.225,0
		c0.604,0,1.811,0,2.414,0c1.811,0,3.018,0.604,4.829,0.604c0.604,0,1.207,0,1.811,0c1.811,0.604,4.225,0.604,6.036,1.207
		c0.604,0,1.207,0.604,1.811,0.604c1.207,0.604,3.018,0.604,4.225,1.207c0.604,0,1.811,0.604,2.414,1.207
		c0.604,0.604,1.811,0.604,2.414,1.207v31.992H34.407l0,0l0,0H10.865V183.26H12.073z M41.65,232.153h23.541
		c3.622,0,6.036-2.414,6.036-6.036v-31.992c3.622,2.414,7.847,4.225,11.469,6.64c3.622,2.414,7.244,4.829,11.469,6.64
		c27.163,15.694,58.551,23.541,90.543,24.145v39.839H41.65L41.65,232.153L41.65,232.153z M254.729,271.992h-57.948v-39.839
		c12.072-0.604,24.749-1.811,36.217-4.829h0.604h21.127c12.676,0,22.938,10.262,22.938,22.334S267.405,271.992,254.729,271.992z"/>
</g>
<g>
</g>
<g>
</g>
<g>
</g>
<g>
</g>
<g>
</g>
<g>
</g>
<g>
</g>
<g>
</g>
<g>
</g>
<g>
</g>
<g>
</g>
<g>
</g>
<g>
</g>
<g>
</g>
<g>
</g>
</svg>
