<?xml version="1.0" encoding="iso-8859-1"?>
<!-- Generator: Adobe Illustrator 18.1.1, SVG Export Plug-In . SVG Version: 6.00 Build 0)  -->
<svg version="1.1" id="Capa_1" xmlns="http://www.w3.org/2000/svg" xmlns:xlink="http://www.w3.org/1999/xlink" x="0px" y="0px"
	 viewBox="0 0 492 492" style="enable-background:new 0 0 492 492;" xml:space="preserve">
<g>
	<g>
		<path style="fill:#010002;" d="M436.5,90c12.333,0,23-4.333,32-13S482,57.833,482,45.5s-4.5-23-13.5-32S448.833,0,436.5,0
			S413.667,4.5,405,13.5s-13,19.667-13,32s4.333,22.833,13,31.5S424.167,90,436.5,90z"/>
		<path style="fill:#010002;" d="M307,482h123c7.333-1.333,11-5,11-11v-10h10c-0.667,0.667-0.667,3.167,0,7.5s-0.667,9-4,14
			s-8.333,8.167-15,9.5H307V482z"/>
		<path style="fill:#010002;" d="M21,389l82,82c4,2,8.333,0.667,13-4l6-6l11,10c0,0.667-0.5,1.667-1.5,3s-2.833,3.333-5.5,6
			s-5.5,4.667-8.5,6s-6.333,2-10,2s-7.5-1.333-11.5-4l-86-87L21,389z"/>
		<path style="fill:#010002;" d="M337,356v82c0,7.333,2.5,13.667,7.5,19s11.167,8,18.5,8c6.667,0,12.667-3,18-9s8-12,8-18V324
			c0-8.667-2.333-15.334-7-20l-65-66l88-89c4.667-6,7.667-12.833,9-20.5c1.346-7.667,1.68-13.833,1-18.5l-2-6
			c-2.67-8.667-7.337-15.333-14-20c-6.667-4.667-12.667-7.333-18-8l-8-1H147c-6,0-11,2.167-15,6.5s-6,9.5-6,15.5s2,11.167,6,15.5
			s9,6.5,15,6.5h156l-65,66c-10,10-15,21.667-15,35c0,14,5,25.667,15,35L337,356z"/>
		<path style="fill:#010002;" d="M224,267l-6-6L88,392c-11.333,9.333-13.667,20.667-7,34c3.333,6.667,8.5,11.167,15.5,13.5
			s13.833,1.833,20.5-1.5c2-0.667,3.667-1.667,5-3l134-135L224,267z"/>
	</g>
</g>
<g>
</g>
<g>
</g>
<g>
</g>
<g>
</g>
<g>
</g>
<g>
</g>
<g>
</g>
<g>
</g>
<g>
</g>
<g>
</g>
<g>
</g>
<g>
</g>
<g>
</g>
<g>
</g>
<g>
</g>
</svg>
